<?xml version="1.0" standalone="no"?>
<!DOCTYPE svg PUBLIC "-//W3C//DTD SVG 20010904//EN"
 "http://www.w3.org/TR/2001/REC-SVG-20010904/DTD/svg10.dtd">
<svg version="1.0" xmlns="http://www.w3.org/2000/svg"
 width="1024.000000pt" height="1024.000000pt" viewBox="0 0 1024.000000 1024.000000"
 preserveAspectRatio="xMidYMid meet">

<g transform="translate(0.000000,1024.000000) scale(0.100000,-0.100000)"
fill="#000000" stroke="none">
<path d="M0 5120 l0 -5120 5120 0 5120 0 0 5120 0 5120 -5120 0 -5120 0 0
-5120z m4922 4520 c2 -72 2 -135 0 -140 -2 -6 -55 -10 -128 -10 l-124 0 0 -74
c0 -40 3 -100 6 -132 l6 -59 119 4 119 3 0 -135 c0 -114 -2 -136 -16 -141 -9
-3 -60 -6 -115 -6 l-99 0 0 -43 c0 -24 3 -86 7 -137 l6 -92 132 7 c73 4 135 3
138 -2 5 -8 -10 -264 -16 -270 -2 -1 -126 -6 -275 -9 l-272 -7 0 24 c0 13 -7
137 -14 274 -24 412 -50 1045 -43 1051 7 8 255 20 439 22 l127 2 3 -130z
m-764 -63 c-3 -141 -5 -157 -29 -202 -28 -56 -121 -138 -176 -156 -19 -6 -36
-9 -39 -7 -2 3 -7 32 -10 65 -6 57 -5 62 19 77 26 17 71 108 64 129 -2 7 -19
10 -40 9 l-37 -4 0 45 c0 24 -3 71 -6 105 -6 58 -6 61 17 67 36 9 148 22 197
24 l44 1 -4 -153z m1537 129 l90 -12 -2 -384 -2 -385 69 210 c37 116 89 276
115 358 36 112 51 147 63 147 32 0 237 -42 246 -51 6 -5 4 -73 -3 -171 -6 -90
-16 -226 -21 -303 -6 -77 -12 -173 -15 -214 -3 -41 -2 -72 1 -68 7 7 43 112
154 455 45 138 84 252 88 252 4 0 64 -16 134 -36 96 -28 128 -41 128 -53 0
-21 -148 -403 -299 -771 -176 -428 -173 -421 -186 -426 -11 -5 -251 49 -260
58 -3 2 -1 90 5 194 5 104 11 254 14 334 l5 145 -62 -185 c-34 -102 -80 -239
-101 -306 -21 -67 -42 -127 -46 -134 -6 -10 -33 -9 -138 5 l-130 18 -6 76
c-13 172 -47 1251 -40 1263 5 8 20 7 199 -16z m-1962 -138 c8 -51 40 -228 71
-393 30 -165 60 -343 67 -395 35 -293 -63 -496 -269 -556 -85 -25 -196 -15
-277 25 -145 71 -226 223 -331 611 -20 74 -61 221 -91 325 -57 197 -74 258
-70 262 5 4 249 73 283 79 19 3 34 4 34 0 0 -19 232 -921 246 -955 44 -110
159 -107 184 4 10 46 -3 136 -60 400 -87 403 -130 618 -125 624 8 8 255 59
291 60 l31 1 16 -92z m3522 -233 c114 -54 202 -172 236 -315 17 -75 15 -277
-5 -368 -49 -226 -148 -416 -279 -539 -109 -101 -224 -141 -352 -122 -263 41
-402 317 -340 675 60 339 237 608 455 687 72 27 209 18 285 -18z m-4633 -63
c81 -40 142 -93 207 -181 64 -87 154 -272 181 -376 39 -151 44 -349 10 -476
-19 -70 -79 -176 -122 -215 -22 -20 -70 -50 -107 -68 -60 -28 -75 -31 -161
-31 -85 0 -102 3 -160 31 -238 113 -430 491 -430 849 0 248 88 406 269 482 48
20 69 23 152 21 84 -3 104 -7 161 -36z m5269 -262 l140 -71 -5 -67 c-3 -37
-10 -173 -16 -302 -6 -129 -12 -262 -15 -295 -3 -32 -1 -55 3 -50 5 6 39 80
77 165 103 235 187 410 196 410 16 0 261 -135 265 -145 3 -6 -37 -96 -87 -200
-78 -163 -199 -416 -421 -887 -28 -60 -54 -108 -58 -108 -4 0 -56 28 -116 63
-172 99 -156 86 -150 137 3 25 19 180 36 345 17 165 33 315 36 334 5 24 3 32
-5 27 -6 -4 -11 -13 -11 -19 0 -7 -25 -73 -56 -147 -30 -74 -82 -202 -114
-285 -32 -82 -61 -158 -65 -167 -4 -10 -11 -18 -17 -18 -6 0 -243 120 -265
135 -2 1 37 100 86 221 48 120 157 393 242 607 92 234 158 387 166 387 7 0 76
-32 154 -70z m-5970 -930 c23 -52 75 -166 115 -252 41 -87 74 -160 74 -163 0
-6 -268 -165 -278 -165 -4 0 -45 84 -91 188 -47 103 -103 228 -126 277 l-41
90 -204 155 c-112 85 -254 192 -315 238 -60 46 -111 87 -113 92 -3 8 270 190
286 190 9 0 177 -137 290 -238 40 -35 75 -62 78 -59 4 3 -2 95 -11 204 -9 109
-15 216 -13 237 l3 40 145 74 145 74 7 -444 8 -443 41 -95z m3540 174 c29 -9
90 -34 134 -57 49 -25 108 -45 153 -53 86 -15 142 -41 197 -93 22 -21 63 -46
91 -56 69 -24 76 -30 131 -121 l49 -79 144 -5 c121 -4 151 -8 180 -25 l35 -20
-167 -3 c-93 -1 -168 -7 -168 -12 0 -5 13 -18 30 -30 16 -12 33 -36 38 -53 l8
-32 223 -2 c215 -1 223 -2 256 -25 l34 -23 -274 -3 c-305 -3 -289 2 -260 -69
33 -77 10 -73 380 -73 l332 0 23 -25 23 -25 -349 0 c-333 0 -350 -1 -382 -20
-25 -15 -32 -25 -27 -38 4 -9 14 -36 22 -59 l15 -43 443 0 c384 0 444 -2 455
-15 7 -9 10 -18 6 -22 -3 -4 -209 -7 -456 -7 -326 -1 -452 -4 -461 -13 -7 -7
-9 -31 -4 -72 l7 -61 527 0 c515 0 528 0 546 -20 17 -19 17 -20 -1 -20 -10 0
-256 0 -546 0 l-528 0 0 -46 c0 -33 -5 -51 -17 -60 -17 -12 -17 -14 -2 -29 14
-15 75 -16 617 -15 l601 1 26 -38 25 -38 -596 -3 -596 -2 6 -23 c3 -12 6 -32
6 -44 l0 -23 622 -2 622 -3 18 -31 18 -31 -635 4 -635 5 0 -25 c0 -13 -3 -52
-6 -86 l-7 -61 686 0 686 0 12 -21 c6 -13 7 -25 2 -30 -6 -6 -293 -8 -701 -7
l-692 3 -12 -29 c-6 -16 -27 -51 -45 -78 l-33 -48 27 0 c495 3 1534 -7 1542
-15 6 -6 13 -24 17 -40 l6 -30 -826 3 -825 3 -17 -26 c-11 -16 -32 -29 -61
-36 -41 -11 -44 -14 -41 -43 2 -23 8 -31 23 -32 11 0 422 -1 913 -2 l892 -2 9
-22 c4 -13 11 -35 15 -50 l6 -28 -937 0 -938 0 -21 -65 -22 -65 979 0 c922 0
978 -1 983 -17 3 -10 8 -35 12 -55 l6 -38 -1024 0 c-1000 0 -1025 0 -1042 -19
-21 -23 -16 -46 17 -81 l23 -25 1027 0 c1023 0 1028 0 1032 -20 7 -30 25 -174
25 -196 0 -18 -20 -19 -942 -21 l-943 -3 45 -22 45 -23 901 0 901 0 6 -82 c4
-46 7 -143 7 -215 l0 -133 -415 0 c-228 0 -415 -4 -415 -8 0 -5 11 -18 23 -30
24 -22 24 -22 398 -19 206 2 381 2 390 0 13 -4 15 -15 12 -56 -8 -110 -24
-255 -35 -310 -9 -50 -14 -58 -29 -54 -26 7 -24 -2 15 -68 19 -31 43 -87 52
-124 l17 -67 84 -33 c46 -18 125 -60 174 -92 97 -64 119 -94 119 -165 0 -27 9
-48 35 -80 55 -67 68 -107 60 -184 -4 -36 -6 -92 -4 -125 1 -33 3 -159 3 -281
l1 -220 -37 -75 c-21 -42 -56 -96 -78 -122 -48 -55 -143 -110 -220 -130 -30
-8 -47 -16 -39 -19 7 -3 -17 -11 -56 -18 -127 -25 -282 -13 -378 30 -54 24
-130 78 -156 112 -21 26 -18 25 61 -14 130 -63 154 -70 284 -75 221 -10 387
51 489 178 65 81 77 131 80 334 3 131 0 200 -11 253 -14 66 -14 79 0 120 29
84 18 128 -54 216 -33 40 -40 56 -40 91 0 24 -3 51 -6 60 -16 40 -232 159
-317 173 l-41 7 -13 65 c-19 93 -72 194 -146 277 -36 39 -68 81 -72 91 -15 48
-174 85 -290 68 -38 -6 -58 -18 -107 -62 -32 -31 -64 -54 -71 -51 -6 2 -21 44
-33 93 -29 117 -69 223 -96 251 -12 13 -40 34 -62 47 -51 29 -380 174 -621
271 -292 119 -386 163 -418 192 -69 65 -267 320 -267 344 0 5 29 52 64 106 67
103 90 162 101 259 15 146 14 144 40 144 46 0 77 24 142 113 102 140 107 155
108 332 0 168 -9 197 -66 218 -28 11 -29 14 -29 79 0 68 5 79 29 56 10 -11 11
-5 7 27 -3 22 -8 75 -11 118 -3 43 -10 90 -16 104 -12 32 -7 38 20 23 26 -14
26 -13 -4 52 -32 69 -32 101 0 116 30 14 32 29 4 58 -38 40 -53 172 -24 204
14 16 13 19 -10 34 -16 10 -47 60 -81 131 -64 131 -93 161 -159 159 -37 -1
-43 3 -75 50 -43 61 -99 92 -192 105 -48 7 -90 22 -150 54 -150 82 -274 89
-398 24 l-70 -36 0 24 c0 14 -4 25 -10 25 -29 0 -181 -66 -255 -110 -48 -29
-123 -63 -175 -79 -149 -47 -238 -120 -284 -236 -12 -29 -29 -59 -37 -68 -10
-10 -18 -42 -22 -91 -4 -52 -12 -87 -27 -110 l-21 -35 22 -11 c20 -11 21 -17
15 -73 -3 -35 -2 -65 4 -72 7 -8 2 -35 -16 -86 -28 -78 -28 -109 -8 -344 l6
-70 -31 -18 c-57 -33 -65 -57 -69 -202 -5 -160 9 -220 66 -286 21 -24 53 -65
70 -91 37 -54 67 -78 99 -78 12 0 25 -6 30 -12 4 -7 11 -62 14 -123 4 -84 11
-123 29 -163 l23 -52 -89 -93 c-49 -50 -109 -116 -133 -144 -39 -47 -49 -53
-82 -53 -75 0 -267 32 -434 72 -169 40 -196 42 -287 22 -25 -6 -28 -4 -28 20
0 15 14 54 30 87 61 120 92 234 98 356 9 205 -16 299 -150 567 -102 206 -100
191 -57 381 19 82 23 130 23 265 1 318 -67 494 -216 561 -44 20 -69 24 -148
24 -81 0 -103 -4 -150 -26 -67 -31 -142 -105 -175 -173 -48 -99 -68 -199 -68
-346 0 -143 12 -214 57 -354 42 -128 34 -193 -28 -237 -23 -15 -66 -46 -96
-67 -65 -46 -121 -68 -299 -116 -135 -37 -244 -80 -272 -109 -14 -14 -16 -40
-12 -199 l5 -183 -56 -43 c-31 -24 -84 -69 -118 -100 l-60 -56 4 -66 c7 -87
39 -151 113 -225 l60 -60 -4 -127 c-3 -117 -1 -131 22 -180 13 -30 39 -71 58
-92 31 -36 33 -44 36 -117 1 -57 9 -96 29 -145 14 -36 32 -93 40 -125 39 -165
150 -362 275 -487 193 -192 502 -305 1008 -366 121 -15 165 -26 103 -26 -18 0
-32 -5 -32 -11 0 -6 23 -59 51 -117 45 -94 90 -193 184 -407 l26 -60 -4 50
c-3 28 -2 44 0 37 3 -6 8 -10 13 -7 8 5 30 -78 30 -111 0 -23 31 -114 39 -114
4 0 20 27 36 60 16 33 38 68 48 78 19 17 19 16 5 -13 -37 -72 -59 -127 -54
-133 3 -3 7 -3 9 -1 2 2 16 22 31 43 16 21 40 60 53 85 22 43 23 44 17 12 -3
-18 -32 -111 -65 -207 -32 -95 -61 -189 -65 -209 -8 -46 -18 -36 -34 40 -20
96 -83 258 -227 585 -73 168 -141 322 -150 343 -14 32 -20 37 -50 37 -19 0
-33 -3 -31 -7 18 -38 31 -68 54 -128 15 -38 43 -105 64 -148 l36 -77 -860 0
-861 0 -17 38 c-9 20 -39 84 -66 142 -53 115 -137 348 -128 357 3 3 236 5 517
4 362 -2 509 1 504 8 -3 6 -20 18 -37 27 -26 14 -92 15 -519 14 l-488 -1 -6
23 c-51 219 -78 395 -91 608 l-7 105 302 -3 c315 -4 314 -4 291 39 -10 18 -24
19 -300 19 -225 0 -290 3 -291 13 -3 43 3 340 7 375 l6 42 209 0 209 0 0 25 0
25 -211 0 -211 0 5 23 c3 12 11 62 17 112 6 49 13 91 15 93 6 7 303 5 314 -2
6 -4 -10 26 -36 66 l-46 73 -99 -3 c-98 -3 -98 -3 -98 21 0 13 5 38 11 56 l11
31 78 0 79 0 7 48 c3 26 11 55 16 65 8 15 2 17 -67 17 l-77 0 8 33 c16 73 8
70 138 68 104 -2 121 0 152 20 46 28 64 57 57 92 l-5 27 -134 0 c-74 0 -134 2
-134 4 0 2 6 18 13 36 l14 32 119 1 119 2 0 80 0 80 -77 -4 c-73 -3 -78 -1
-78 18 0 28 15 35 88 39 53 3 72 9 110 36 66 47 99 63 215 102 l102 34 -198
-5 c-211 -4 -214 -4 -181 44 l17 24 271 -7 271 -7 80 48 80 48 -317 3 c-175 1
-318 5 -318 7 0 3 10 21 22 40 l23 35 280 -1 c393 -1 349 -6 341 39 -3 20 -11
54 -16 75 l-11 37 -234 0 c-129 0 -235 4 -235 8 0 28 30 32 237 32 164 0 213
3 213 13 -1 6 -6 39 -13 72 l-13 60 -124 3 c-69 2 -126 5 -129 7 -2 3 2 11 9
20 10 12 36 15 126 15 l114 0 0 80 c0 62 -3 82 -15 86 -13 5 -12 10 4 30 11
14 22 44 26 67 27 175 131 334 259 397 152 75 342 53 462 -52 l33 -29 483 0
c435 1 484 3 493 17 80 131 164 198 303 243 49 16 132 54 184 84 54 32 135 69
190 86 109 35 118 37 118 16 0 -18 5 -19 33 -3 72 38 200 48 288 22z m-129
-124 c-170 -61 -252 -191 -252 -402 0 -66 6 -106 25 -164 30 -91 30 -92 7 -71
-51 46 -98 211 -87 302 21 166 111 300 230 343 17 6 53 11 80 11 l50 0 -53
-19z m-333 -87 c-41 -82 -63 -191 -64 -308 0 -92 3 -105 32 -167 30 -64 49
-90 37 -50 -5 16 -5 16 6 0 6 -10 10 -21 10 -24 -1 -4 4 -11 12 -15 10 -7 9
-9 -4 -9 -25 0 -134 125 -167 192 -61 121 -62 226 -4 316 36 55 60 64 33 13
-11 -22 -22 -59 -25 -83 l-5 -43 14 36 c27 70 55 115 97 157 23 23 45 42 49
42 4 0 -5 -26 -21 -57z m516 37 c112 -26 179 -48 160 -53 -11 -2 8 -5 43 -6
34 0 62 -5 62 -11 0 -5 -12 -10 -26 -10 -43 0 -144 -30 -203 -60 -102 -52
-166 -143 -193 -275 -11 -55 -13 -57 -19 -30 -22 100 1 227 53 283 22 24 22
24 2 14 -82 -43 -140 -209 -128 -364 3 -49 4 -88 0 -88 -25 0 -96 215 -96 291
0 12 -2 20 -5 17 -7 -6 -41 -131 -48 -173 -3 -16 -4 18 -2 78 1 59 7 113 12
120 5 6 17 33 27 59 57 156 209 243 361 208z m-798 -152 c-3 -8 -6 -5 -6 6 -1
11 2 17 5 13 3 -3 4 -12 1 -19z m-23 -4 c3 -8 2 -13 -3 -10 -15 9 -1 -124 19
-184 11 -33 20 -64 20 -70 0 -16 58 -100 89 -129 l25 -24 -25 8 c-13 4 -48 30
-76 58 -68 66 -73 38 -7 -33 57 -61 41 -65 -60 -15 -126 62 -226 158 -226 217
0 7 9 -5 21 -27 27 -51 40 -66 81 -89 l33 -20 -31 40 c-44 55 -66 102 -67 141
-1 26 8 42 38 73 22 22 42 40 46 40 3 0 9 -25 11 -55 3 -31 10 -61 16 -67 8
-8 9 4 5 45 -5 52 -4 58 25 86 34 34 57 39 66 15z m1340 -78 c8 -31 -5 -65
-34 -91 -18 -17 -41 -21 -140 -26 -92 -5 -127 -11 -163 -28 -56 -27 -121 -96
-154 -164 l-25 -52 6 40 c15 104 46 162 111 206 56 38 109 50 227 48 99 -1
103 0 125 26 13 14 23 35 23 46 0 27 17 24 24 -5z m-457 -28 c-8 -13 -40 -49
-71 -81 -56 -59 -65 -52 -17 13 48 63 127 124 88 68z m188 12 c3 -5 -2 -10
-12 -10 -10 0 -45 -13 -78 -29 -82 -39 -147 -111 -187 -209 l-19 -47 5 45 c10
83 26 119 81 178 36 40 66 62 92 69 50 14 110 16 118 3z m-2633 -102 c24 -7
52 -27 73 -50 33 -39 62 -118 51 -137 -4 -5 2 -29 11 -53 15 -36 18 -74 18
-223 0 -200 -5 -220 -71 -290 -40 -42 -41 -45 -14 -45 18 0 20 -7 20 -74 0
-137 17 -224 62 -306 45 -85 46 -101 2 -219 l-26 -69 -89 103 c-78 91 -129
139 -129 120 0 -3 9 -33 20 -66 12 -34 20 -63 18 -64 -2 -2 -44 7 -93 19 -81
21 -147 31 -447 68 -49 6 -88 15 -88 19 0 5 8 9 18 9 48 0 326 166 357 214 9
13 20 46 24 73 7 44 9 46 18 24 6 -15 12 -20 16 -14 4 6 -9 65 -29 130 -71
230 -69 218 -69 388 0 182 17 262 77 351 58 87 166 123 270 92z m2982 -30 c11
-43 6 -103 -13 -144 -36 -79 -120 -115 -265 -113 -90 1 -83 15 8 18 74 2 154
31 199 73 l42 39 -40 -25 c-78 -49 -202 -75 -275 -58 l-35 9 39 16 c21 10 44
17 50 17 6 1 22 7 35 14 21 12 14 13 -55 8 -73 -4 -78 -3 -63 12 17 19 108 46
154 46 23 0 27 3 15 10 -11 7 -8 10 16 10 59 0 128 28 149 60 24 36 31 37 39
8z m-1157 -50 c-3 -8 -6 -5 -6 6 -1 11 2 17 5 13 3 -3 4 -12 1 -19z m16 -38
c3 -11 1 -18 -4 -14 -5 3 -9 12 -9 20 0 20 7 17 13 -6z m-428 -114 c39 -19 95
-42 125 -50 l55 -15 -83 0 c-49 -1 -96 5 -115 13 -42 18 -84 63 -93 101 l-7
30 24 -22 c13 -12 56 -37 94 -57z m-70 -65 c22 -11 67 -26 100 -33 60 -12 60
-12 25 -20 -78 -17 -164 20 -200 86 l-23 41 29 -26 c16 -15 47 -36 69 -48z
m1659 14 c-23 -48 -84 -83 -159 -90 l-60 -6 70 28 c50 19 83 40 115 74 49 51
60 49 34 -6z m-1154 -86 c119 -13 214 -36 261 -62 l35 -20 55 26 c75 36 236
47 289 20 39 -20 75 -69 90 -122 19 -67 51 -265 57 -358 6 -93 6 -93 -18 -93
-40 0 -222 -30 -277 -46 -50 -14 -54 -18 -77 -71 -29 -64 -31 -81 -9 -62 10 8
7 -2 -8 -27 -21 -36 -23 -49 -22 -184 1 -80 6 -181 13 -224 10 -70 9 -81 -5
-98 -10 -10 -22 -18 -27 -18 -6 0 -2 7 9 16 10 9 -3 4 -29 -11 -54 -30 -100
-28 -117 6 -8 13 -21 19 -46 19 -67 0 -90 31 -62 83 10 19 9 20 -4 9 -9 -7
-21 -26 -28 -42 -16 -38 4 -71 52 -89 66 -25 84 -36 130 -78 56 -51 64 -51
181 10 64 33 83 49 99 80 l20 40 41 -41 c23 -23 56 -46 72 -52 l30 -11 -40
-24 c-51 -31 -117 -45 -263 -54 -235 -15 -438 15 -520 78 l-24 17 41 28 c24
17 39 35 38 47 -1 21 -17 19 -106 -16 -55 -21 -56 -22 -55 -61 0 -38 38 -129
58 -141 5 -4 7 1 3 11 -4 10 -10 36 -14 58 l-6 41 43 -24 c24 -13 79 -57 123
-97 93 -88 154 -117 263 -131 139 -17 252 22 370 129 36 33 70 60 75 60 21 0
-28 -70 -100 -141 -102 -102 -153 -123 -306 -123 -114 -1 -133 4 -220 59 -22
13 -15 2 25 -39 79 -82 97 -90 196 -82 46 4 115 16 153 26 39 11 74 20 77 20
4 0 4 -37 2 -82 -10 -176 -91 -245 -277 -236 -89 4 -169 32 -163 57 1 6 -4 11
-12 11 -7 0 -34 21 -59 48 -79 81 -91 102 -93 151 -1 39 -13 65 -73 161 -122
195 -162 297 -132 334 9 11 2 24 -35 62 -25 27 -55 63 -66 79 -18 28 -19 28
-13 5 3 -14 21 -55 40 -92 19 -37 31 -70 26 -72 -9 -6 -52 37 -69 69 -8 15
-12 16 -13 5 0 -8 -7 10 -15 40 -24 92 -29 300 -10 405 24 130 45 205 67 243
24 42 37 131 38 255 0 149 25 250 73 294 45 43 64 44 268 22z m-455 -25 c65
-14 75 -19 55 -25 -44 -12 -110 -10 -140 6 -32 17 -41 46 -12 39 9 -2 53 -11
97 -20z m65 -49 c0 -13 -164 -126 -177 -121 -8 3 -12 2 -9 -3 3 -5 -1 -12 -10
-15 -13 -5 -15 -2 -10 16 4 13 9 36 13 51 8 37 41 58 95 59 23 0 52 4 63 9 24
9 35 11 35 4z m1523 -29 c15 -4 25 -11 22 -16 -8 -13 -47 -12 -103 2 l-47 13
40 5 c22 3 45 5 50 4 6 -1 23 -5 38 -8z m25 -63 c5 -10 12 -33 15 -51 l7 -32
-28 14 c-15 8 -44 28 -65 44 -36 29 -37 31 -15 35 52 10 77 7 86 -10z m-1590
-37 c-7 -8 -35 -38 -63 -66 -46 -48 -50 -50 -59 -31 -12 27 12 54 74 87 52 27
67 30 48 10z m1510 -75 c40 -21 79 -58 69 -67 -15 -15 -88 30 -107 67 -13 24
-9 24 38 0z m-1488 -5 c0 -16 -101 -106 -119 -106 -32 0 13 60 79 103 30 21
40 21 40 3z m-155 -66 c-4 -12 -9 -19 -12 -17 -3 3 -2 15 2 27 4 12 9 19 12
17 3 -3 2 -15 -2 -27z m1625 -10 c42 -21 70 -54 70 -82 0 -23 -7 -23 -45 3
-26 18 -83 99 -69 99 3 0 22 -9 44 -20z m-1465 -68 c-8 -34 -28 -89 -45 -122
-16 -33 -30 -67 -31 -77 0 -13 -28 58 -29 74 0 2 16 21 36 43 39 43 40 59 4
40 -49 -26 -41 1 15 53 33 31 61 55 62 53 1 -1 -4 -30 -12 -64z m1503 -141
c-3 -27 -23 -39 -31 -19 -3 7 -17 40 -32 73 l-27 60 47 -45 c34 -33 45 -51 43
-69z m-1704 -66 c24 -25 66 -124 66 -153 0 -9 -15 5 -32 32 -41 61 -78 89
-117 89 -26 0 -29 3 -20 18 23 44 70 50 103 14z m1874 3 c20 -20 14 -35 -18
-46 -16 -6 -48 -30 -70 -54 -39 -43 -40 -43 -31 -12 9 33 37 91 53 112 13 15
50 16 66 0z m-1901 -121 c4 -6 0 -8 -9 -5 -11 5 -18 -4 -27 -31 -17 -60 -15
-84 9 -78 17 4 20 0 20 -32 0 -40 34 -157 53 -179 20 -25 30 5 11 37 -20 33
-13 51 14 35 24 -15 41 -53 47 -107 8 -62 -6 -61 -68 6 -106 114 -133 174
-123 275 8 80 19 102 46 95 11 -3 23 -10 27 -16z m1472 -15 c47 -22 23 -27
-34 -8 -25 9 -60 16 -78 17 -30 1 -31 1 -7 9 31 9 74 2 119 -18z m-219 -56 c0
-2 -7 -17 -15 -32 l-15 -29 62 -3 c58 -3 177 11 212 24 9 3 16 1 16 -4 0 -13
-111 -67 -157 -77 -46 -9 -41 -20 10 -22 173 -8 223 -182 92 -318 -58 -59 -84
-65 -149 -32 -121 60 -181 147 -192 277 -8 97 3 125 55 141 27 8 38 16 34 26
-5 14 23 53 39 53 4 0 8 -2 8 -4z m138 -19 c2 -12 -3 -17 -17 -17 -15 0 -21 6
-21 21 0 25 33 22 38 -4z m-98 3 c0 -5 -4 -10 -10 -10 -5 0 -10 5 -10 10 0 6
5 10 10 10 6 0 10 -4 10 -10z m-1202 -75 c-3 -3 -9 2 -12 12 -6 14 -5 15 5 6
7 -7 10 -15 7 -18z m-1940 -46 c76 -13 93 -26 40 -31 -19 -2 45 -17 151 -36
193 -35 256 -54 265 -78 3 -9 11 -12 17 -9 6 4 21 -3 35 -16 19 -18 24 -32 24
-75 0 -80 -27 -207 -47 -222 -21 -15 -47 -13 -283 24 -203 33 -389 56 -404 51
-6 -2 12 -16 39 -30 82 -43 86 -48 30 -41 -27 4 -47 4 -44 0 19 -21 397 -111
597 -142 91 -15 116 -22 124 -37 15 -29 24 -182 10 -173 -7 4 -12 -12 -14 -51
l-3 -58 -90 2 c-49 1 -212 15 -361 32 -149 17 -284 31 -299 31 -27 0 -27 -1
-11 -19 52 -57 328 -122 668 -157 l58 -5 11 -42 c15 -58 7 -216 -12 -228 -24
-15 -373 -5 -571 17 -72 8 -74 -4 -8 -45 28 -17 50 -35 50 -40 0 -17 186 -44
345 -50 l160 -6 3 -70 c5 -130 -37 -156 -252 -157 -82 -1 -117 4 -187 25 -47
15 -94 36 -104 47 -10 11 -23 20 -29 20 -6 0 -2 -7 8 -15 11 -8 17 -18 13 -21
-4 -4 -2 -13 4 -21 6 -7 8 -13 4 -13 -12 0 42 -48 86 -77 22 -14 38 -28 35
-30 -21 -21 -212 82 -294 160 -92 87 -96 227 -7 227 34 0 31 15 -6 30 -32 14
-128 104 -157 147 -17 28 -22 129 -9 196 7 32 14 41 49 56 l40 17 -43 29 c-24
15 -79 60 -121 98 -80 73 -117 134 -104 175 6 18 98 99 191 167 53 38 53 40
44 88 -5 23 -11 101 -15 173 l-7 131 29 20 c76 54 169 63 352 32z m622 -235
c37 -76 19 -191 -35 -216 -14 -6 -27 -9 -30 -6 -3 3 -1 36 5 74 7 39 9 101 5
142 -7 73 -7 73 14 60 12 -7 30 -31 41 -54z m2332 -89 c4 -19 1 -25 -13 -25
-12 0 -19 7 -19 18 0 38 26 43 32 7z m325 -106 c11 -11 3 -63 -15 -95 -11 -19
-11 -18 -12 1 0 11 4 35 9 53 6 20 6 32 0 32 -5 0 -9 5 -9 10 0 13 13 13 27
-1z m-454 -141 c92 1 167 -2 167 -7 0 -17 -64 -71 -98 -83 -46 -15 -183 -15
-240 1 -42 12 -122 73 -122 93 0 6 23 7 63 2 34 -4 137 -7 230 -6z m-2129 -52
c47 -19 74 -89 57 -145 -14 -47 -44 -87 -79 -105 l-27 -14 0 87 c-1 66 -6 97
-22 133 -12 25 -19 49 -15 52 10 10 52 6 86 -8z m1377 -336 c24 -67 134 -302
264 -565 123 -247 240 -488 260 -535 20 -47 48 -110 62 -140 22 -48 87 -223
128 -345 59 -175 146 -491 159 -580 3 -22 -23 43 -58 145 -61 179 -118 336
-169 470 -66 173 -344 791 -378 841 l-16 23 -58 -28 c-58 -29 -115 -71 -233
-174 l-62 -54 27 -32 c133 -151 374 -529 498 -781 86 -174 185 -408 185 -436
0 -8 8 -33 19 -55 10 -21 28 -79 40 -129 12 -49 27 -105 32 -123 6 -19 9 -35
7 -37 -2 -2 -27 60 -57 138 -29 78 -87 216 -127 305 -41 90 -71 169 -68 174 4
6 3 9 -2 6 -5 -3 -27 32 -49 77 -23 46 -37 81 -32 78 5 -3 4 4 -2 16 -7 11
-14 21 -17 21 -3 0 -2 -5 2 -12 5 -7 3 -8 -5 -4 -7 5 -10 14 -7 21 2 7 -5 28
-16 46 -12 19 -35 59 -51 89 -47 87 -118 194 -137 207 -9 7 -23 26 -30 43 -7
16 -17 30 -23 30 -6 0 -8 3 -4 6 10 11 -97 156 -180 243 -29 30 -51 57 -48 59
2 3 -5 13 -17 24 l-21 18 49 46 c166 156 293 244 352 244 22 0 19 8 -49 138
-40 75 -105 213 -145 305 -69 162 -88 201 -78 160 5 -19 -40 -215 -78 -333
-11 -36 -28 -91 -38 -122 l-18 -57 47 -15 c25 -8 93 -27 150 -42 57 -16 99
-30 94 -31 -9 -3 -153 24 -316 59 -32 7 -58 16 -58 21 0 4 24 55 53 114 49 98
53 111 53 177 0 73 -26 160 -49 169 -8 3 -17 -11 -24 -37 -6 -22 -18 -50 -27
-61 -15 -19 -16 -17 -10 30 22 171 43 217 153 336 l57 62 13 -49 c7 -27 31
-101 53 -164z m160 32 c46 -48 76 -78 68 -68 -13 18 -13 18 8 6 12 -8 19 -18
17 -22 -3 -4 0 -8 6 -8 7 0 35 -19 63 -43 80 -66 154 -111 294 -177 70 -34
133 -65 138 -70 7 -6 -12 -34 -58 -82 -38 -40 -95 -107 -126 -148 -31 -41 -59
-76 -63 -78 -5 -2 -8 -8 -8 -14 0 -5 -9 -21 -19 -34 l-19 -25 -25 33 c-39 53
-72 112 -58 104 10 -7 11 -4 1 13 -6 12 -15 19 -20 16 -6 -3 -7 0 -4 8 2 7 -4
25 -16 38 -17 20 -19 21 -13 4 3 -11 2 -17 -2 -12 -5 4 -9 15 -10 25 -3 27
-16 52 -25 47 -4 -3 -11 2 -14 11 -4 10 -2 13 7 9 6 -4 3 1 -7 9 -11 9 -16 16
-10 16 5 0 3 4 -3 8 -17 11 -207 395 -232 470 -12 34 -21 78 -21 98 l0 36 34
-41 c19 -23 72 -81 117 -129z m-912 -3 c99 -20 159 -37 190 -56 57 -33 153
-124 193 -181 l30 -44 -26 17 c-14 10 -26 14 -26 10 0 -3 -19 10 -42 29 -54
47 -64 36 -11 -12 45 -41 103 -114 103 -130 0 -6 -42 32 -94 84 -111 111 -134
120 -107 42 10 -29 21 -75 25 -103 4 -27 11 -63 16 -80 5 -16 18 -89 29 -160
11 -72 23 -139 26 -150 4 -11 -4 -2 -17 20 -42 71 -147 223 -158 230 -13 8
-13 -8 -1 -21 37 -37 78 -374 53 -434 l-11 -25 0 30 c-1 41 -45 217 -76 306
-13 39 -56 132 -95 205 -38 73 -70 138 -70 144 0 13 46 13 73 -1 33 -17 175
-158 204 -202 13 -22 27 -37 29 -34 8 8 -44 136 -93 228 -39 75 -67 115 -132
195 -6 7 -7 14 -4 17 9 9 -108 64 -177 82 -36 10 -69 22 -75 28 -14 13 68 1
244 -34z m2021 -170 c-5 -52 -15 -177 -21 -279 -5 -102 -12 -204 -15 -228 l-5
-43 -41 61 c-54 81 -144 186 -190 223 -20 16 -51 32 -70 36 l-33 7 94 63 c111
75 239 198 266 258 17 36 20 39 23 20 2 -13 -2 -66 -8 -118z m-2394 -59 c-7
-131 -26 -210 -75 -316 -124 -264 -297 -394 -544 -408 -54 -4 -72 -2 -52 3 26
8 23 9 -25 10 -30 1 -77 8 -105 15 l-50 14 85 1 c261 3 497 159 626 415 49 98
59 142 18 83 -42 -62 -38 -36 11 64 24 52 57 138 72 192 26 95 28 97 36 65 5
-18 7 -80 3 -138z m804 150 c-1 -37 -16 -43 -58 -21 -63 32 -62 43 2 39 42 -2
56 -7 56 -18z m-1104 -28 c67 -46 54 -196 -21 -230 -25 -12 -25 -11 -25 41 0
28 -7 79 -15 112 -19 78 -19 73 13 78 15 2 29 5 32 5 3 1 10 -2 16 -6z m2866
-69 c24 -26 54 -58 68 -73 14 -15 74 -87 135 -161 60 -74 152 -182 203 -241
51 -60 89 -108 85 -109 -4 0 -68 0 -140 1 -73 1 -133 -3 -133 -7 0 -4 64 -50
143 -101 78 -50 156 -103 172 -117 57 -48 7 -25 -101 46 -105 69 -152 99 -259
167 l-50 32 76 0 c95 0 199 11 199 20 0 4 -29 41 -65 83 -74 87 -228 290 -299
394 -27 40 -51 71 -53 70 -1 -2 2 -19 7 -38 39 -133 80 -607 54 -616 -5 -2 -7
-30 -4 -69 3 -36 4 -67 1 -70 -2 -2 -20 -4 -39 -4 l-34 0 8 98 c14 152 9 574
-8 665 -8 42 -13 77 -11 77 1 0 22 -21 45 -47z m513 -281 c294 -122 618 -265
652 -287 22 -15 24 -21 19 -68 -3 -29 -9 -99 -13 -157 -7 -96 -8 -101 -14 -55
-4 28 -8 93 -8 146 l-1 97 -42 17 c-52 22 -150 59 -283 110 -270 101 -503 215
-555 270 -45 48 -50 50 245 -73z m-659 -477 c4 -11 11 -23 16 -26 5 -4 -7 -16
-26 -29 -20 -12 -45 -39 -56 -60 -21 -41 -68 -100 -79 -100 -4 0 -22 47 -40
104 l-33 103 42 84 43 84 63 -70 c35 -39 67 -79 70 -90z m-667 68 c-11 20 -17
37 -12 37 14 -1 71 -83 79 -115 9 -38 23 -57 37 -48 7 4 8 -5 3 -28 -14 -67
-36 -225 -36 -256 0 -17 -4 -34 -9 -37 -10 -6 -27 32 -100 221 -51 133 -59
167 -41 178 5 3 14 25 21 47 l11 42 34 -40 34 -39 -21 38z m2486 -102 c33 -7
22 -9 -62 -12 -56 -2 -99 -1 -95 3 17 16 98 21 157 9z m-2217 -9 c20 -13 26
-161 13 -328 -7 -82 -14 -156 -17 -165 -3 -10 -16 -16 -34 -17 -17 0 -39 -4
-50 -7 -19 -6 -20 -2 -19 92 1 54 5 141 9 193 7 93 7 93 10 30 l3 -65 13 85
c7 47 13 104 13 127 1 29 6 45 19 52 21 13 24 13 40 3z m595 -34 c29 0 3 -4
-58 -8 -60 -4 -121 -10 -135 -15 -20 -6 -22 -5 -13 5 12 13 117 30 141 24 8
-2 37 -5 65 -6z m1685 -28 c31 -16 73 -46 92 -67 19 -20 29 -33 22 -29 -11 7
-12 4 -3 -13 12 -22 27 -30 16 -8 -4 6 8 -4 25 -23 51 -57 80 -128 85 -205 l4
-70 -10 64 c-15 100 -44 156 -106 206 -102 83 -212 104 -332 64 -92 -31 -158
-89 -203 -178 -34 -64 -38 -81 -38 -146 0 -41 5 -86 11 -102 5 -15 38 -55 73
-88 63 -60 94 -119 82 -152 -5 -12 -14 -4 -37 31 -17 26 -52 61 -78 79 -39 27
-55 32 -107 32 -51 0 -66 -4 -98 -29 -84 -64 -100 -199 -34 -273 11 -12 17
-27 13 -33 -4 -7 1 -14 13 -17 11 -3 23 -12 26 -20 3 -8 10 -12 15 -8 6 3 26
-3 46 -14 32 -17 34 -20 16 -26 -27 -8 -90 10 -132 37 -47 31 -82 107 -87 186
-8 117 41 190 176 264 80 44 79 42 85 160 4 70 8 83 44 139 37 56 40 65 31 93
-12 33 -26 56 -37 56 -8 0 -6 -39 4 -63 8 -20 -9 -67 -25 -67 -5 0 -11 5 -11
10 -3 19 -5 25 -17 47 -7 12 -15 43 -18 68 -6 42 -5 45 17 45 18 0 20 -3 11
-12 -14 -14 -16 -84 -3 -92 5 -4 7 11 4 34 -5 36 -3 40 16 40 11 0 21 5 21 10
0 6 15 10 34 10 20 0 62 15 103 36 86 46 105 52 176 53 46 1 70 -5 115 -29z
m-1568 -38 c58 -19 92 -25 148 -23 l72 2 -1 -43 -1 -43 -12 35 c-16 45 -46 51
-75 14 -23 -29 -26 -58 -11 -101 10 -27 9 -27 -6 -8 -8 11 -18 25 -22 30 -4 6
-32 24 -62 40 -52 28 -62 30 -165 30 -98 0 -116 -3 -166 -26 -148 -70 -220
-209 -184 -353 38 -148 163 -253 315 -264 76 -5 133 8 184 43 20 13 36 20 36
15 0 -17 -73 -58 -123 -71 -66 -16 -167 -5 -232 25 -161 73 -248 257 -200 421
78 270 250 364 505 277z m-793 -19 c-3 -10 -5 -4 -5 12 0 17 2 24 5 18 2 -7 2
-21 0 -30z m1256 0 c-29 -2 -78 -2 -110 0 -32 2 -8 3 52 3 61 0 87 -1 58 -3z
m490 0 c-18 -2 -48 -2 -65 0 -18 2 -4 4 32 4 36 0 50 -2 33 -4z m80 -19 c15
-5 12 -50 -4 -60 -8 -5 -737 -6 -762 -1 -9 1 -12 -40 -12 -159 0 -202 1 -203
114 -205 75 -2 76 -2 21 -8 -81 -10 -109 -3 -131 33 -17 27 -19 52 -19 203 0
94 3 178 6 187 5 14 49 16 389 16 211 0 390 -2 398 -6z m-852 -24 c6 -49 -1
-100 -15 -100 -19 0 -40 54 -32 85 6 25 45 37 47 15z m1314 -8 c17 -12 41 -47
28 -38 -9 5 -13 1 -14 -11 -1 -13 -3 -11 -8 6 -4 14 -13 27 -20 29 -10 3 -12
0 -8 -11 3 -9 9 -32 13 -51 8 -43 -12 -56 -58 -38 l-30 11 17 -27 16 -27 -20
24 c-32 36 -31 83 2 119 20 21 62 29 82 14z m39 -129 c-8 -13 -21 -23 -29 -23
-10 0 -7 7 9 23 17 17 23 32 20 53 l-4 29 10 -30 c7 -22 6 -35 -6 -52z m-1656
51 c23 -7 29 -32 13 -62 -6 -9 -18 -36 -27 -59 -20 -48 -37 -53 -73 -22 -32
26 -42 107 -16 132 17 17 61 22 103 11z m316 -109 l7 -50 -23 45 c-20 38 -21
46 -8 51 19 8 16 13 24 -46z m1141 -10 c65 -64 -13 -168 -100 -135 -36 14 -60
73 -45 110 22 53 103 67 145 25z m374 -1 c12 -15 21 -34 21 -42 0 -27 -41 -62
-72 -62 -28 0 -29 2 -26 43 3 39 5 42 33 42 25 0 31 -5 36 -30 l7 -30 1 31 c1
35 -14 54 -44 54 -33 0 -54 -30 -49 -70 6 -52 10 -58 41 -63 28 -4 28 -4 -3
-6 -47 -2 -84 32 -84 77 0 50 32 82 81 82 29 0 42 -6 58 -26z m-1661 -56 c3
-30 0 -38 -13 -38 -9 0 -13 -4 -10 -10 3 -5 -1 -10 -9 -10 -9 0 -16 -5 -16
-11 0 -8 -12 -10 -35 -6 -43 7 -37 -8 8 -23 l32 -10 -33 5 c-50 7 -122 65 -82
65 6 0 10 6 10 13 0 26 27 50 66 57 68 14 79 9 82 -32z m-286 2 c30 -34 42
-60 28 -60 -6 0 -10 -6 -10 -14 0 -11 -8 -12 -42 -4 -23 5 -53 8 -67 6 -23 -3
-26 0 -24 26 2 28 -11 56 -26 56 -3 0 -4 -26 -1 -57 l5 -58 40 -6 40 -6 -35
-1 c-19 -1 -41 2 -48 7 -16 10 -27 80 -18 115 6 24 10 26 69 26 57 0 65 -3 89
-30z m112 -101 c43 -50 29 -91 -35 -103 -41 -7 -49 2 -49 57 0 28 32 77 51 77
4 0 19 -14 33 -31z m364 -52 c9 -8 46 -25 82 -36 86 -28 133 -61 164 -114 23
-39 47 -137 34 -137 -3 0 -18 25 -34 56 -38 75 -102 131 -160 140 -131 19
-243 -111 -204 -238 15 -51 102 -141 162 -168 l43 -20 -48 0 c-123 0 -218 115
-218 267 -1 69 14 100 83 169 52 54 61 68 67 110 5 41 6 44 9 18 2 -18 11 -39
20 -47z m1281 27 c30 -38 26 -51 -4 -17 -14 15 -23 21 -19 12 3 -10 1 -20 -5
-24 -6 -3 -11 -1 -11 4 0 6 -4 11 -9 11 -6 0 -6 -13 0 -32 5 -18 12 -45 14
-60 5 -26 3 -28 -25 -28 -42 0 -80 39 -80 81 0 74 95 109 139 53z m-478 -4
c-13 -11 -35 -19 -50 -19 l-26 2 25 4 c13 3 33 11 44 19 30 21 35 16 7 -6z
m-1211 -117 c34 -8 38 -12 18 -12 -50 -2 -76 15 -84 53 -3 20 -2 48 2 63 7 24
9 19 14 -32 l5 -60 45 -12z m2167 86 c21 -13 46 -25 56 -26 10 -2 38 -16 62
-33 42 -29 43 -31 50 -102 7 -71 9 -75 56 -120 50 -48 58 -72 38 -110 -15 -29
-12 -153 5 -186 10 -20 14 -68 13 -189 0 -89 -4 -160 -9 -157 -4 3 -8 -5 -8
-17 0 -12 -3 -19 -6 -16 -4 4 -25 -7 -47 -23 -23 -17 -51 -30 -63 -30 -12 0
-36 -11 -52 -25 -23 -19 -56 -30 -138 -45 -59 -11 -115 -20 -123 -20 -9 0 -23
18 -33 40 -18 44 -44 58 -28 14 20 -52 15 -60 -57 -77 -63 -16 -69 -16 -80 0
-13 16 -29 81 -22 87 2 1 79 21 171 44 92 23 215 62 275 87 59 25 117 49 128
54 17 7 13 12 -32 35 -29 14 -60 26 -69 26 -9 0 -46 -14 -81 -30 -70 -33 -161
-60 -204 -60 -24 0 -27 5 -33 45 -10 63 -24 65 -28 3 l-3 -53 -90 -22 c-49
-12 -117 -25 -151 -29 l-62 -6 -31 42 c-35 48 -38 60 -16 60 9 0 82 31 163 69
81 38 185 79 232 91 141 35 221 61 287 91 58 26 71 38 58 50 -12 13 -196 -17
-300 -48 -17 -5 -18 -3 -8 9 33 39 -31 37 -113 -3 -34 -17 -69 -29 -76 -26 -9
4 -8 6 4 6 16 1 119 53 146 74 14 11 16 56 2 77 -7 11 -10 8 -10 -16 0 -35
-16 -51 -80 -83 -63 -31 -110 -59 -127 -76 -13 -13 -13 -15 0 -15 8 0 17 7 21
15 6 15 26 21 26 7 0 -9 -47 -38 -86 -52 l-29 -10 25 20 c38 30 5 24 -55 -9
l-52 -30 4 43 c5 42 -9 86 -27 86 -5 0 -2 -12 6 -27 19 -38 18 -45 -11 -79
-14 -16 -25 -35 -25 -41 0 -18 -31 -16 -58 3 -30 21 -44 51 -37 75 4 13 77 67
179 134 261 171 257 169 446 204 148 27 167 33 193 59 25 25 27 32 17 51 -10
20 -16 21 -70 15 -74 -8 -90 1 -49 29 34 24 67 72 56 83 -3 4 -18 -7 -31 -23
-31 -37 -45 -43 -216 -88 -74 -20 -143 -38 -152 -41 -14 -4 -15 -1 -6 24 15
38 -7 86 -42 90 l-25 3 28 -23 c21 -17 28 -31 25 -48 -1 -14 -7 -24 -13 -23
-5 1 -16 -9 -23 -23 -25 -48 -112 -20 -112 36 0 53 124 122 330 184 97 30 143
28 197 -5z m-1369 -43 c2 -10 -2 -23 -9 -30 -9 -8 -10 -7 -5 7 9 26 -2 41 -20
26 -11 -9 -14 -8 -14 5 0 24 44 17 48 -8z m42 -1 c0 -14 -4 -25 -10 -25 -11 0
-14 33 -3 43 11 11 13 8 13 -18z m30 5 c0 -11 -2 -20 -4 -20 -2 0 -6 9 -9 20
-3 11 -1 20 4 20 5 0 9 -9 9 -20z m30 0 c0 -11 -2 -20 -4 -20 -2 0 -6 9 -9 20
-3 11 -1 20 4 20 5 0 9 -9 9 -20z m27 -27 c-3 -10 -5 -4 -5 12 0 17 2 24 5 18
2 -7 2 -21 0 -30z m-162 -22 c-6 -5 -25 10 -25 20 0 5 6 4 14 -3 8 -7 12 -15
11 -17z m140 9 c-3 -5 -16 -10 -28 -9 -21 0 -21 1 -2 9 28 12 37 12 30 0z
m-85 -13 c-14 -8 -27 -12 -30 -10 -7 6 23 23 40 23 8 0 4 -6 -10 -13z m-288
-44 c41 -39 58 -75 58 -122 0 -34 -7 -48 -43 -86 -37 -38 -49 -45 -83 -45 -85
0 -154 67 -154 148 0 116 141 182 222 105z m315 15 c-3 -8 -6 -5 -6 6 -1 11 2
17 5 13 3 -3 4 -12 1 -19z m444 5 c16 -10 32 -25 35 -35 3 -10 9 -18 13 -18 4
0 13 -11 19 -25 43 -94 -39 -206 -140 -192 -45 6 -105 48 -119 84 -14 37 -11
100 6 134 33 63 124 88 186 52z m-1607 -60 c42 -86 43 -140 6 -358 -17 -105
-37 -234 -43 -288 l-12 -98 -43 32 c-24 18 -47 42 -52 54 -19 51 82 715 109
715 4 0 20 -26 35 -57z m1200 -79 c9 -4 21 -15 27 -26 10 -19 9 -18 -19 2 -37
28 -66 20 -93 -23 -15 -26 -19 -28 -19 -12 0 50 51 79 104 59z m0 -59 c8 -23
-15 -55 -40 -55 -25 0 -39 37 -22 57 15 18 55 16 62 -2z m-3326 -272 c16 -38
40 -93 53 -123 12 -30 27 -61 32 -68 27 -35 125 -442 127 -524 0 -17 -38 -18
-669 -18 l-670 0 -64 63 c-115 113 -273 301 -379 450 -47 68 -168 267 -168
278 0 5 375 9 854 9 l853 0 31 -67z m2738 -144 c-26 -153 -76 -353 -102 -406
-54 -112 -174 -183 -307 -183 -119 1 -207 46 -281 144 -43 57 -63 119 -72 222
l-7 75 67 -50 c111 -83 223 -116 370 -109 77 3 101 9 158 36 82 40 101 63 118
144 11 53 39 157 56 207 12 37 12 -4 0 -80z m-849 29 c-3 -8 -6 -5 -6 6 -1 11
2 17 5 13 3 -3 4 -12 1 -19z m1993 -230 c0 -7 -30 -46 -66 -87 -36 -40 -79
-98 -96 -129 -47 -83 -46 -45 1 45 41 77 87 135 132 167 28 19 29 19 29 4z
m-685 -71 c39 -52 33 -43 120 -185 41 -67 75 -124 75 -127 0 -3 -68 -5 -150
-5 l-151 0 6 33 c3 17 12 98 20 178 8 80 18 154 21 164 7 18 8 18 18 1 6 -10
25 -36 41 -59z m1665 -11 c0 -8 -6 -21 -13 -28 -7 -7 -16 -21 -20 -30 -8 -23
-25 -23 -62 3 l-30 21 27 -6 c22 -5 33 -1 50 19 16 19 24 22 30 13 5 -9 8 -8
8 5 0 9 2 17 5 17 3 0 5 -6 5 -14z m-651 -67 c7 -23 15 -47 17 -54 7 -17 -85
-29 -120 -15 -28 10 -64 76 -49 91 9 8 49 15 104 18 34 1 37 -1 48 -40z m538
-84 c-75 -71 -121 -85 -283 -85 -67 0 -130 3 -140 7 -32 12 107 44 227 51 113
7 117 8 165 44 27 21 58 37 69 37 15 0 7 -12 -38 -54z m-4304 -268 c13 -58 13
-69 1 -74 -29 -11 -41 6 -52 75 -13 78 -16 203 -5 242 5 18 11 -2 24 -75 10
-55 24 -131 32 -168z m967 -157 c69 -11 188 -63 232 -102 l26 -23 -51 -117
-52 -118 -45 8 c-276 45 -413 -118 -427 -508 -10 -282 54 -465 186 -532 52
-27 101 -37 101 -20 0 4 -7 68 -15 142 -8 74 -15 143 -15 153 0 14 -9 17 -44
17 l-45 0 -5 43 c-3 23 -7 86 -9 140 l-3 97 191 1 c104 1 208 2 230 3 l40 1
12 -105 c23 -196 54 -394 89 -574 20 -101 32 -182 27 -187 -5 -5 -49 -21 -99
-35 -423 -123 -676 -71 -860 178 -139 189 -195 554 -138 903 57 349 231 574
484 629 81 18 108 19 190 6z m-2956 -36 c24 -9 24 -329 0 -338 -9 -3 -65 -6
-125 -6 l-109 0 -2 -687 -3 -688 -190 0 -190 0 -3 688 -2 687 -119 0 c-115 0
-119 1 -125 23 -11 43 -7 302 6 315 9 9 118 12 429 12 230 0 424 -3 433 -6z
m494 -6 c9 -9 12 -99 12 -345 l0 -334 98 3 97 3 5 340 5 340 191 3 192 2 6
-22 c3 -13 6 -395 6 -849 0 -646 -3 -829 -13 -842 -11 -16 -32 -17 -197 -15
l-185 3 -3 353 -2 352 -100 0 -100 0 0 -338 c0 -255 -3 -342 -13 -355 -11 -16
-32 -17 -197 -15 l-185 3 -3 850 c-1 468 0 856 3 863 6 17 366 17 383 0z
m1410 4 c9 -7 12 -48 10 -173 l-3 -164 -152 -3 -153 -3 0 -42 c0 -23 3 -99 7
-169 l6 -126 126 1 126 2 3 -162 2 -163 -129 0 c-73 0 -132 -4 -136 -10 -3 -5
-3 -86 1 -181 l7 -171 151 3 151 4 8 -169 c5 -122 4 -172 -4 -182 -10 -12 -73
-14 -358 -12 l-346 3 -3 850 c-1 468 0 856 3 863 3 9 80 12 337 12 183 0 339
-4 346 -8z m2362 -452 c54 -331 76 -447 82 -425 4 17 43 219 88 450 45 233 86
423 93 427 16 10 514 10 521 0 5 -8 15 -146 55 -742 11 -157 30 -434 42 -615
13 -182 20 -338 16 -348 -6 -16 -24 -17 -204 -15 l-198 3 -6 70 c-4 39 -12
239 -19 445 -7 206 -15 395 -19 420 -6 43 -8 37 -44 -110 -49 -203 -107 -451
-147 -625 -17 -77 -36 -155 -42 -172 l-10 -33 -148 0 c-88 0 -151 4 -155 10
-5 8 -124 592 -186 913 -16 83 -24 68 -32 -63 -10 -148 -46 -656 -53 -745 -10
-124 7 -115 -226 -115 l-201 0 7 73 c12 121 84 763 126 1117 22 184 45 378 51
430 7 52 17 98 23 102 6 5 123 7 261 5 l250 -2 75 -455z m1655 285 l0 -170
-148 -3 -147 -3 2 -167 3 -167 118 3 c66 1 128 0 138 -3 18 -6 19 -18 19 -153
0 -81 -4 -152 -8 -159 -5 -8 -49 -13 -137 -15 l-130 -3 0 -175 0 -175 149 4
c118 3 150 1 157 -10 14 -22 11 -333 -3 -347 -15 -15 -683 -17 -693 -3 -3 5
-8 391 -12 856 -5 724 -4 848 8 856 8 5 162 8 349 6 l335 -2 0 -170z m541 165
c7 -7 1 -98 -17 -278 -16 -147 -40 -395 -54 -552 -14 -157 -28 -304 -31 -327
l-5 -43 -109 0 c-106 0 -110 1 -114 23 -2 12 -12 121 -21 242 -9 121 -32 380
-50 575 -26 270 -31 356 -22 362 18 12 411 10 423 -2z m-133 -1364 c69 -29
126 -115 127 -192 0 -57 -43 -139 -90 -170 -46 -31 -131 -42 -185 -24 -21 7
-55 28 -76 47 -100 90 -87 244 25 321 41 27 57 32 107 32 33 0 74 -6 92 -14z"/>
<path d="M7074 9078 c-103 -27 -235 -313 -262 -569 -18 -162 12 -239 93 -239
64 0 113 51 175 183 102 217 150 510 97 591 -21 31 -63 45 -103 34z"/>
<path d="M2399 9015 c-78 -42 -79 -205 -4 -442 67 -212 173 -373 247 -373 33
0 67 23 83 55 51 109 -35 478 -157 676 -49 80 -116 113 -169 84z"/>
<path d="M3402 7739 c3 -8 14 -34 23 -59 10 -25 23 -51 28 -58 8 -9 98 -12
415 -10 l405 3 12 50 c6 28 15 56 19 63 6 9 -86 12 -411 12 -230 0 -436 3
-457 7 -32 5 -38 3 -34 -8z"/>
<path d="M3470 7553 c0 -3 5 -35 11 -70 l11 -63 378 0 c229 0 381 4 385 9 3 6
-4 15 -15 21 -27 14 -25 33 5 66 14 15 25 31 25 35 0 5 -180 9 -400 9 -220 0
-400 -3 -400 -7z"/>
<path d="M3500 7292 l0 -83 365 3 c417 3 389 -3 398 98 2 30 4 56 3 57 0 1
-173 3 -384 5 l-382 3 0 -83z"/>
<path d="M3497 7156 c-3 -8 -9 -42 -13 -75 l-7 -61 377 0 376 0 2 55 c1 30 2
62 2 71 1 15 -33 17 -365 20 -310 3 -368 2 -372 -10z"/>
<path d="M3460 6943 c-5 -21 -13 -55 -16 -75 l-7 -38 334 -2 c380 -3 468 -2
475 5 3 3 2 37 -2 76 l-7 71 -383 0 -383 0 -11 -37z"/>
<path d="M3470 6746 c0 -16 44 -86 54 -87 6 0 148 0 316 -1 l305 0 6 29 c16
68 45 62 -336 65 -190 2 -345 -1 -345 -6z"/>
<path d="M3551 6593 c0 -5 17 -43 37 -86 l37 -78 255 1 c140 0 257 4 261 8 3
4 4 42 1 85 l-4 77 -294 0 c-162 0 -294 -3 -293 -7z"/>
<path d="M3644 6368 c-2 -3 -1 -14 3 -24 3 -10 12 -43 18 -73 l11 -56 297 0
c163 -1 297 1 297 3 0 1 -20 24 -44 50 -25 27 -50 60 -55 75 l-10 26 -257 3
c-141 2 -258 0 -260 -4z"/>
<path d="M3680 6071 l0 -71 370 0 370 0 0 39 c0 36 -2 39 -32 45 -18 4 -43 17
-55 30 l-22 23 -316 2 -315 2 0 -70z"/>
<path d="M3654 5875 c-7 -16 -15 -47 -19 -67 l-7 -38 410 0 c290 0 413 3 418
11 3 6 -2 35 -12 65 l-18 54 -380 2 -379 3 -13 -30z"/>
<path d="M4326 5668 c5 -7 -342 -13 -555 -10 -41 1 -72 -1 -69 -3 13 -13 310
-75 413 -86 l117 -12 59 60 c35 34 54 60 45 60 -8 0 -13 -4 -10 -9z"/>
<path d="M4708 6747 c-59 -17 -113 -58 -126 -96 -6 -16 -8 -32 -5 -35 3 -2 28
4 57 15 62 25 119 27 166 6 l35 -15 -40 -2 c-22 -1 -49 -6 -60 -11 -14 -6 -8
-8 25 -4 40 4 37 2 -33 -22 -42 -15 -76 -32 -74 -38 2 -5 30 -23 62 -40 54
-28 67 -30 202 -35 124 -4 146 -8 154 -23 11 -19 39 -23 39 -6 0 25 26 -1 37
-37 l11 -39 1 65 c0 44 -6 79 -19 109 -27 58 -25 62 11 21 l30 -35 -16 40 c-9
22 -24 57 -32 78 -19 45 -58 68 -158 90 -105 24 -212 29 -267 14z m162 -218
c0 -6 -4 -7 -10 -4 -5 3 -10 11 -10 16 0 6 5 7 10 4 6 -3 10 -11 10 -16z m-45
-10 c4 -11 5 -22 3 -25 -8 -7 -48 27 -43 37 11 16 33 10 40 -12z m165 -9 c0
-5 -9 -8 -20 -7 -12 1 -20 8 -20 19 0 16 3 17 20 8 11 -6 20 -15 20 -20z"/>
<path d="M5205 5933 c11 -18 25 -35 32 -37 20 -8 16 -1 -19 35 l-32 34 19 -32z"/>
<path d="M4910 5551 c0 -6 4 -13 10 -16 6 -3 7 1 4 9 -7 18 -14 21 -14 7z"/>
<path d="M4900 5520 c0 -5 5 -10 11 -10 5 0 7 5 4 10 -3 6 -8 10 -11 10 -2 0
-4 -4 -4 -10z"/>
<path d="M5056 5372 c37 -40 133 -65 199 -52 38 7 37 8 -21 9 -75 1 -148 22
-183 53 -19 16 -18 14 5 -10z"/>
<path d="M3013 6120 c0 -25 2 -35 4 -22 2 12 2 32 0 45 -2 12 -4 2 -4 -23z"/>
<path d="M2605 4910 c11 -5 29 -8 40 -8 16 0 15 2 -5 8 -34 11 -60 11 -35 0z"/>
<path d="M4830 5366 c0 -2 7 -7 16 -10 8 -3 12 -2 9 4 -6 10 -25 14 -25 6z"/>
<path d="M7299 4278 c-6 -12 -4 -48 2 -48 5 0 9 11 9 25 0 21 -6 33 -11 23z"/>
<path d="M7210 3870 c-13 -9 -13 -10 0 -10 8 0 22 5 30 10 13 9 13 10 0 10 -8
0 -22 -5 -30 -10z"/>
<path d="M5962 4168 c1 -48 2 -49 5 -13 3 22 9 45 15 52 8 10 6 13 -6 13 -13
0 -16 -10 -14 -52z"/>
<path d="M7417 4110 c-19 -16 -27 -30 -27 -53 l1 -32 14 33 c16 37 72 67 93
50 19 -16 14 -62 -8 -86 -12 -12 -17 -22 -13 -22 23 1 53 44 53 78 0 45 -71
65 -113 32z"/>
<path d="M7638 3073 c7 -3 16 -2 19 1 4 3 -2 6 -13 5 -11 0 -14 -3 -6 -6z"/>
<path d="M6420 3762 c-73 -36 -88 -130 -29 -184 69 -64 189 -9 189 87 0 42
-28 85 -65 101 -44 18 -53 18 -95 -4z m54 -42 c21 -8 26 -16 26 -44 0 -29 -5
-36 -35 -50 -19 -9 -35 -21 -35 -27 0 -25 -40 15 -45 45 -5 27 -2 39 16 60 25
29 35 31 73 16z"/>
<path d="M7183 3756 c-60 -50 -66 -125 -15 -178 20 -22 35 -28 70 -28 37 0 50
6 77 33 19 19 37 46 40 60 25 99 -96 177 -172 113z m47 -16 c-13 -8 -12 -10 3
-10 10 0 15 -4 12 -10 -3 -5 3 -10 15 -10 11 0 23 -7 26 -15 4 -8 10 -13 14
-10 5 3 6 -4 3 -15 -3 -12 -18 -27 -33 -35 -15 -8 -30 -21 -33 -30 -9 -21 -44
-19 -57 4 -13 25 -13 94 0 86 5 -3 7 0 4 8 -5 15 30 47 51 47 5 0 3 -5 -5 -10z"/>
<path d="M6138 2897 c-68 -35 -87 -40 -165 -44 -97 -6 -194 12 -263 47 -21 11
-43 20 -48 20 -16 0 8 -122 33 -169 39 -71 124 -120 211 -121 89 -1 194 53
242 124 25 36 85 187 73 184 -3 0 -41 -19 -83 -41z"/>
</g>
</svg>
